<?xml version="1.0" encoding="UTF-8"?>
<svg width="33px" height="34px" viewBox="0 0 33 34" version="1.1" xmlns="http://www.w3.org/2000/svg" xmlns:xlink="http://www.w3.org/1999/xlink">
    <!-- Generator: sketchtool 53 (72520) - https://sketchapp.com -->
    <title>5D0D1FE4-502C-44EC-B108-6FF152BC5D07</title>
    <desc>Created with sketchtool.</desc>
    <defs>
        <rect id="path-1" x="0" y="0" width="1440" height="87"></rect>
        <filter x="-0.5%" y="-5.7%" width="101.0%" height="116.1%" filterUnits="objectBoundingBox" id="filter-2">
            <feOffset dx="0" dy="2" in="SourceAlpha" result="shadowOffsetOuter1"></feOffset>
            <feGaussianBlur stdDeviation="2" in="shadowOffsetOuter1" result="shadowBlurOuter1"></feGaussianBlur>
            <feColorMatrix values="0 0 0 0 0   0 0 0 0 0   0 0 0 0 0  0 0 0 0.079955201 0" type="matrix" in="shadowBlurOuter1"></feColorMatrix>
        </filter>
    </defs>
    <g id="Page-1" stroke="none" stroke-width="1" fill="none" fill-rule="evenodd">
        <g id="Desktop-HD-1440" transform="translate(-140.000000, -26.000000)">
            <rect fill="#FFFFFF" x="0" y="0" width="1440" height="3355"></rect>
            <g id="header">
                <g>
                    <g>
                        <use fill="black" fill-opacity="1" filter="url(#filter-2)" xlink:href="#path-1"></use>
                        <use fill="#FFFFFF" fill-rule="evenodd" xlink:href="#path-1"></use>
                    </g>
                    <g id="logo" transform="translate(134.000000, 26.500000)" fill="#009592">
                        <g id="logo_flower" transform="translate(6.000000, 0.000000)">
                            <path d="M16.5,24 C16.1365967,24 10,19.0751322 10,13 C10,6.92486775 15.5020752,2 16.5,2 C17.4979248,2 23,6.92486775 23,13 C23,19.0751322 16.8634033,24 16.5,24 Z M22,4.49732118 C23.4497845,3.42069144 24.6628442,2.90273101 24.971485,3.0150671 C25.3256845,3.14398518 26.0587592,4.67444463 26.4672327,6.87483758 C25.374894,7.01170654 24.3366254,7.33346492 23.3816188,7.80946102 C23.1041428,6.6119067 22.6310935,5.4947248 22,4.49732118 Z M11.4672327,4.49732118 C10.8361392,5.4947248 10.3630898,6.6119067 10.0856139,7.80946102 C9.13060733,7.33346492 8.09233867,7.01170654 7,6.87483758 C7.40847353,4.67444463 8.14154814,3.14398518 8.49574764,3.0150671 C8.8043885,2.90273101 10.0174482,3.42069144 11.4672327,4.49732118 Z M12.9430883,29.559885 C14.2668482,29.1528365 15.4734976,28.4783913 16.5,27.5995857 C17.5265024,28.4783913 18.7331518,29.1528365 20.0569117,29.559885 C18.4257763,31.6783845 16.688254,33 16.5,33 C16.311746,33 14.5742237,31.6783845 12.9430883,29.559885 Z M24.1663042,9.5820539 C27.8331785,7.80437164 31.8832,7.80297405 32.4150413,8.24451377 C33.134588,8.84188832 33.9097133,15.6425502 29.9720491,19.9686875 C26.7697705,23.4868891 21.1342041,24.0338581 19,23.9984467 C19.7754212,23.3473672 20.6415484,22.4738995 21.4068283,21.5528337 C23.5475309,18.9763539 24.8537984,16.1504615 24.8537984,13.2498287 C24.8537984,12.0588644 24.5958952,10.8074033 24.1663042,9.5820539 Z M16.6919128,25.2149138 C17.7965617,25.4430081 18.9298782,25.5641106 20.0779058,25.5446429 C23.9053861,25.4797381 27.310486,24.0235607 29.9777906,22.2342949 C30.7704155,22.7932914 31.2637992,23.3055541 31.3066708,23.5251296 C31.4318575,24.166298 28.8457698,28.0996858 24.8042404,28.5910076 C20.762711,29.0823295 16.716586,25.5378507 16.6709981,25.3043634 C16.66816,25.2898273 16.6752133,25.2593708 16.6919128,25.2149138 Z M16.2894953,25.2149138 C16.3061948,25.2593708 16.3132482,25.2898273 16.3104101,25.3043634 C16.2648222,25.5378507 12.2186972,29.0823295 8.17716777,28.5910076 C4.13563836,28.0996858 1.54955062,24.166298 1.67473735,23.5251296 C1.717609,23.3055541 2.21099261,22.7932914 3.00361757,22.2342949 C5.67092215,24.0235607 9.07602201,25.4797381 12.9035023,25.5446429 C14.0515299,25.5641106 15.1848465,25.4430081 16.2894953,25.2149138 Z M8.83369583,9.5820539 C8.40410484,10.8074033 8.14620155,12.0588644 8.14620155,13.2498287 C8.14620155,16.1504615 9.45246906,18.9763539 11.5931717,21.5528337 C12.3584516,22.4738995 13.2245788,23.3473672 14,23.9984467 C11.8657959,24.0338581 6.2302295,23.4868891 3.02795093,19.9686875 C-0.909713328,15.6425502 -0.134588034,8.84188832 0.584958675,8.24451377 C1.11679997,7.80297405 5.16682146,7.80437164 8.83369583,9.5820539 Z" id="Combined-Shape"></path>
                        </g>
                    </g>
                </g>
            </g>
        </g>
    </g>
</svg>